<svg xmlns:xlink="http://www.w3.org/1999/xlink" width="32.322ex" height="12.509ex" style="font-size: 15px; vertical-align: -5.671ex;" viewBox="0 -2944.1 13916.5 5385.9" role="img" focusable="false" xmlns="http://www.w3.org/2000/svg">
<defs>
<path stroke-width="1" id="E1-MJMAIN-5B" d="M118 -250V750H255V710H158V-210H255V-250H118Z"></path>
<path stroke-width="1" id="E1-MJMATHI-74" d="M26 385Q19 392 19 395Q19 399 22 411T27 425Q29 430 36 430T87 431H140L159 511Q162 522 166 540T173 566T179 586T187 603T197 615T211 624T229 626Q247 625 254 615T261 596Q261 589 252 549T232 470L222 433Q222 431 272 431H323Q330 424 330 420Q330 398 317 385H210L174 240Q135 80 135 68Q135 26 162 26Q197 26 230 60T283 144Q285 150 288 151T303 153H307Q322 153 322 145Q322 142 319 133Q314 117 301 95T267 48T216 6T155 -11Q125 -11 98 4T59 56Q57 64 57 83V101L92 241Q127 382 128 383Q128 385 77 385H26Z"></path>
<path stroke-width="1" id="E1-MJMATHI-72" d="M21 287Q22 290 23 295T28 317T38 348T53 381T73 411T99 433T132 442Q161 442 183 430T214 408T225 388Q227 382 228 382T236 389Q284 441 347 441H350Q398 441 422 400Q430 381 430 363Q430 333 417 315T391 292T366 288Q346 288 334 299T322 328Q322 376 378 392Q356 405 342 405Q286 405 239 331Q229 315 224 298T190 165Q156 25 151 16Q138 -11 108 -11Q95 -11 87 -5T76 7T74 17Q74 30 114 189T154 366Q154 405 128 405Q107 405 92 377T68 316T57 280Q55 278 41 278H27Q21 284 21 287Z"></path>
<path stroke-width="1" id="E1-MJMATHI-75" d="M21 287Q21 295 30 318T55 370T99 420T158 442Q204 442 227 417T250 358Q250 340 216 246T182 105Q182 62 196 45T238 27T291 44T328 78L339 95Q341 99 377 247Q407 367 413 387T427 416Q444 431 463 431Q480 431 488 421T496 402L420 84Q419 79 419 68Q419 43 426 35T447 26Q469 29 482 57T512 145Q514 153 532 153Q551 153 551 144Q550 139 549 130T540 98T523 55T498 17T462 -8Q454 -10 438 -10Q372 -10 347 46Q345 45 336 36T318 21T296 6T267 -6T233 -11Q189 -11 155 7Q103 38 103 113Q103 170 138 262T173 379Q173 380 173 381Q173 390 173 393T169 400T158 404H154Q131 404 112 385T82 344T65 302T57 280Q55 278 41 278H27Q21 284 21 287Z"></path>
<path stroke-width="1" id="E1-MJMATHI-65" d="M39 168Q39 225 58 272T107 350T174 402T244 433T307 442H310Q355 442 388 420T421 355Q421 265 310 237Q261 224 176 223Q139 223 138 221Q138 219 132 186T125 128Q125 81 146 54T209 26T302 45T394 111Q403 121 406 121Q410 121 419 112T429 98T420 82T390 55T344 24T281 -1T205 -11Q126 -11 83 42T39 168ZM373 353Q367 405 305 405Q272 405 244 391T199 357T170 316T154 280T149 261Q149 260 169 260Q282 260 327 284T373 353Z"></path>
<path stroke-width="1" id="E1-MJMATHI-66" d="M118 -162Q120 -162 124 -164T135 -167T147 -168Q160 -168 171 -155T187 -126Q197 -99 221 27T267 267T289 382V385H242Q195 385 192 387Q188 390 188 397L195 425Q197 430 203 430T250 431Q298 431 298 432Q298 434 307 482T319 540Q356 705 465 705Q502 703 526 683T550 630Q550 594 529 578T487 561Q443 561 443 603Q443 622 454 636T478 657L487 662Q471 668 457 668Q445 668 434 658T419 630Q412 601 403 552T387 469T380 433Q380 431 435 431Q480 431 487 430T498 424Q499 420 496 407T491 391Q489 386 482 386T428 385H372L349 263Q301 15 282 -47Q255 -132 212 -173Q175 -205 139 -205Q107 -205 81 -186T55 -132Q55 -95 76 -78T118 -61Q162 -61 162 -103Q162 -122 151 -136T127 -157L118 -162Z"></path>
<path stroke-width="1" id="E1-MJMATHI-61" d="M33 157Q33 258 109 349T280 441Q331 441 370 392Q386 422 416 422Q429 422 439 414T449 394Q449 381 412 234T374 68Q374 43 381 35T402 26Q411 27 422 35Q443 55 463 131Q469 151 473 152Q475 153 483 153H487Q506 153 506 144Q506 138 501 117T481 63T449 13Q436 0 417 -8Q409 -10 393 -10Q359 -10 336 5T306 36L300 51Q299 52 296 50Q294 48 292 46Q233 -10 172 -10Q117 -10 75 30T33 157ZM351 328Q351 334 346 350T323 385T277 405Q242 405 210 374T160 293Q131 214 119 129Q119 126 119 118T118 106Q118 61 136 44T179 26Q217 26 254 59T298 110Q300 114 325 217T351 328Z"></path>
<path stroke-width="1" id="E1-MJMATHI-6C" d="M117 59Q117 26 142 26Q179 26 205 131Q211 151 215 152Q217 153 225 153H229Q238 153 241 153T246 151T248 144Q247 138 245 128T234 90T214 43T183 6T137 -11Q101 -11 70 11T38 85Q38 97 39 102L104 360Q167 615 167 623Q167 626 166 628T162 632T157 634T149 635T141 636T132 637T122 637Q112 637 109 637T101 638T95 641T94 647Q94 649 96 661Q101 680 107 682T179 688Q194 689 213 690T243 693T254 694Q266 694 266 686Q266 675 193 386T118 83Q118 81 118 75T117 65V59Z"></path>
<path stroke-width="1" id="E1-MJMATHI-73" d="M131 289Q131 321 147 354T203 415T300 442Q362 442 390 415T419 355Q419 323 402 308T364 292Q351 292 340 300T328 326Q328 342 337 354T354 372T367 378Q368 378 368 379Q368 382 361 388T336 399T297 405Q249 405 227 379T204 326Q204 301 223 291T278 274T330 259Q396 230 396 163Q396 135 385 107T352 51T289 7T195 -10Q118 -10 86 19T53 87Q53 126 74 143T118 160Q133 160 146 151T160 120Q160 94 142 76T111 58Q109 57 108 57T107 55Q108 52 115 47T146 34T201 27Q237 27 263 38T301 66T318 97T323 122Q323 150 302 164T254 181T195 196T148 231Q131 256 131 289Z"></path>
<path stroke-width="1" id="E1-MJMAIN-5D" d="M22 710V750H159V-250H22V-210H119V710H22Z"></path>
<path stroke-width="1" id="E1-MJSZ4-23A1" d="M319 -645V1154H666V1070H403V-645H319Z"></path>
<path stroke-width="1" id="E1-MJSZ4-23A3" d="M319 -644V1155H403V-560H666V-644H319Z"></path>
<path stroke-width="1" id="E1-MJSZ4-23A2" d="M319 0V602H403V0H319Z"></path>
<path stroke-width="1" id="E1-MJSZ4-23A4" d="M0 1070V1154H347V-645H263V1070H0Z"></path>
<path stroke-width="1" id="E1-MJSZ4-23A6" d="M263 -560V1155H347V-644H0V-560H263Z"></path>
<path stroke-width="1" id="E1-MJSZ4-23A5" d="M263 0V602H347V0H263Z"></path>
</defs>
<g stroke="currentColor" fill="currentColor" stroke-width="0" transform="matrix(1 0 0 -1 0 0)">
<g transform="translate(0,2862)">
 <use xlink:href="#E1-MJSZ4-23A1" x="0" y="-1155"></use>
<g transform="translate(0,-3470.1490066225165) scale(1,2.8509933774834435)">
 <use xlink:href="#E1-MJSZ4-23A2"></use>
</g>
 <use xlink:href="#E1-MJSZ4-23A3" x="0" y="-4579"></use>
</g>
<g transform="translate(834,0)">
<g transform="translate(-11,0)">
<g transform="translate(231,2062)">
 <use xlink:href="#E1-MJMATHI-74" x="0" y="0"></use>
 <use xlink:href="#E1-MJMATHI-72" x="361" y="0"></use>
 <use xlink:href="#E1-MJMATHI-75" x="813" y="0"></use>
 <use xlink:href="#E1-MJMATHI-65" x="1385" y="0"></use>
</g>
<g transform="translate(231,656)">
 <use xlink:href="#E1-MJMATHI-74" x="0" y="0"></use>
 <use xlink:href="#E1-MJMATHI-72" x="361" y="0"></use>
 <use xlink:href="#E1-MJMATHI-75" x="813" y="0"></use>
 <use xlink:href="#E1-MJMATHI-65" x="1385" y="0"></use>
</g>
<g transform="translate(0,-750)">
 <use xlink:href="#E1-MJMATHI-66" x="0" y="0"></use>
 <use xlink:href="#E1-MJMATHI-61" x="550" y="0"></use>
 <use xlink:href="#E1-MJMATHI-6C" x="1080" y="0"></use>
 <use xlink:href="#E1-MJMATHI-73" x="1378" y="0"></use>
 <use xlink:href="#E1-MJMATHI-65" x="1848" y="0"></use>
</g>
<g transform="translate(0,-2156)">
 <use xlink:href="#E1-MJMATHI-66" x="0" y="0"></use>
 <use xlink:href="#E1-MJMATHI-61" x="550" y="0"></use>
 <use xlink:href="#E1-MJMATHI-6C" x="1080" y="0"></use>
 <use xlink:href="#E1-MJMATHI-73" x="1378" y="0"></use>
 <use xlink:href="#E1-MJMATHI-65" x="1848" y="0"></use>
</g>
</g>
<g transform="translate(3304,0)">
<g transform="translate(231,2062)">
 <use xlink:href="#E1-MJMATHI-74" x="0" y="0"></use>
 <use xlink:href="#E1-MJMATHI-72" x="361" y="0"></use>
 <use xlink:href="#E1-MJMATHI-75" x="813" y="0"></use>
 <use xlink:href="#E1-MJMATHI-65" x="1385" y="0"></use>
</g>
<g transform="translate(0,656)">
 <use xlink:href="#E1-MJMATHI-66" x="0" y="0"></use>
 <use xlink:href="#E1-MJMATHI-61" x="550" y="0"></use>
 <use xlink:href="#E1-MJMATHI-6C" x="1080" y="0"></use>
 <use xlink:href="#E1-MJMATHI-73" x="1378" y="0"></use>
 <use xlink:href="#E1-MJMATHI-65" x="1848" y="0"></use>
</g>
<g transform="translate(231,-750)">
 <use xlink:href="#E1-MJMATHI-74" x="0" y="0"></use>
 <use xlink:href="#E1-MJMATHI-72" x="361" y="0"></use>
 <use xlink:href="#E1-MJMATHI-75" x="813" y="0"></use>
 <use xlink:href="#E1-MJMATHI-65" x="1385" y="0"></use>
</g>
<g transform="translate(0,-2156)">
 <use xlink:href="#E1-MJMATHI-66" x="0" y="0"></use>
 <use xlink:href="#E1-MJMATHI-61" x="550" y="0"></use>
 <use xlink:href="#E1-MJMATHI-6C" x="1080" y="0"></use>
 <use xlink:href="#E1-MJMATHI-73" x="1378" y="0"></use>
 <use xlink:href="#E1-MJMATHI-65" x="1848" y="0"></use>
</g>
</g>
<g transform="translate(6618,0)">
<g transform="translate(0,2062)">
 <use xlink:href="#E1-MJMATHI-66" x="0" y="0"></use>
 <use xlink:href="#E1-MJMATHI-61" x="550" y="0"></use>
 <use xlink:href="#E1-MJMATHI-6C" x="1080" y="0"></use>
 <use xlink:href="#E1-MJMATHI-73" x="1378" y="0"></use>
 <use xlink:href="#E1-MJMATHI-65" x="1848" y="0"></use>
</g>
<g transform="translate(231,656)">
 <use xlink:href="#E1-MJMATHI-74" x="0" y="0"></use>
 <use xlink:href="#E1-MJMATHI-72" x="361" y="0"></use>
 <use xlink:href="#E1-MJMATHI-75" x="813" y="0"></use>
 <use xlink:href="#E1-MJMATHI-65" x="1385" y="0"></use>
</g>
<g transform="translate(0,-750)">
 <use xlink:href="#E1-MJMATHI-66" x="0" y="0"></use>
 <use xlink:href="#E1-MJMATHI-61" x="550" y="0"></use>
 <use xlink:href="#E1-MJMATHI-6C" x="1080" y="0"></use>
 <use xlink:href="#E1-MJMATHI-73" x="1378" y="0"></use>
 <use xlink:href="#E1-MJMATHI-65" x="1848" y="0"></use>
</g>
<g transform="translate(231,-2156)">
 <use xlink:href="#E1-MJMATHI-74" x="0" y="0"></use>
 <use xlink:href="#E1-MJMATHI-72" x="361" y="0"></use>
 <use xlink:href="#E1-MJMATHI-75" x="813" y="0"></use>
 <use xlink:href="#E1-MJMATHI-65" x="1385" y="0"></use>
</g>
</g>
<g transform="translate(9933,0)">
<g transform="translate(0,2062)">
 <use xlink:href="#E1-MJMATHI-66" x="0" y="0"></use>
 <use xlink:href="#E1-MJMATHI-61" x="550" y="0"></use>
 <use xlink:href="#E1-MJMATHI-6C" x="1080" y="0"></use>
 <use xlink:href="#E1-MJMATHI-73" x="1378" y="0"></use>
 <use xlink:href="#E1-MJMATHI-65" x="1848" y="0"></use>
</g>
<g transform="translate(0,656)">
 <use xlink:href="#E1-MJMATHI-66" x="0" y="0"></use>
 <use xlink:href="#E1-MJMATHI-61" x="550" y="0"></use>
 <use xlink:href="#E1-MJMATHI-6C" x="1080" y="0"></use>
 <use xlink:href="#E1-MJMATHI-73" x="1378" y="0"></use>
 <use xlink:href="#E1-MJMATHI-65" x="1848" y="0"></use>
</g>
<g transform="translate(231,-750)">
 <use xlink:href="#E1-MJMATHI-74" x="0" y="0"></use>
 <use xlink:href="#E1-MJMATHI-72" x="361" y="0"></use>
 <use xlink:href="#E1-MJMATHI-75" x="813" y="0"></use>
 <use xlink:href="#E1-MJMATHI-65" x="1385" y="0"></use>
</g>
<g transform="translate(0,-2156)">
 <use xlink:href="#E1-MJMATHI-66" x="0" y="0"></use>
 <use xlink:href="#E1-MJMATHI-61" x="550" y="0"></use>
 <use xlink:href="#E1-MJMATHI-6C" x="1080" y="0"></use>
 <use xlink:href="#E1-MJMATHI-73" x="1378" y="0"></use>
 <use xlink:href="#E1-MJMATHI-65" x="1848" y="0"></use>
</g>
</g>
</g>
<g transform="translate(13249,2862)">
 <use xlink:href="#E1-MJSZ4-23A4" x="0" y="-1155"></use>
<g transform="translate(0,-3470.1490066225165) scale(1,2.8509933774834435)">
 <use xlink:href="#E1-MJSZ4-23A5"></use>
</g>
 <use xlink:href="#E1-MJSZ4-23A6" x="0" y="-4579"></use>
</g>
</g>
</svg>